<?xml version="1.0" standalone="no"?>
<!DOCTYPE svg PUBLIC "-//W3C//DTD SVG 20010904//EN"
 "http://www.w3.org/TR/2001/REC-SVG-20010904/DTD/svg10.dtd">
<svg version="1.0" xmlns="http://www.w3.org/2000/svg"
 width="481.000000pt" height="193.000000pt" viewBox="0 0 481.000000 193.000000"
 preserveAspectRatio="xMidYMid meet">

<g transform="translate(0.000000,193.000000) scale(0.100000,-0.100000)"
fill="#000000" stroke="none">
<path d="M529 1627 c-257 -150 -474 -278 -483 -286 -14 -12 -16 -55 -16 -381
0 -348 1 -368 19 -384 37 -34 953 -556 974 -556 23 0 939 528 969 558 15 15
17 55 20 384 1 230 -1 371 -7 377 -27 26 -970 561 -988 561 -12 -1 -232 -123
-488 -273z m664 47 c92 -53 167 -99 167 -102 0 -6 -447 -267 -750 -439 l-56
-32 -164 95 c-91 53 -168 99 -172 102 -7 7 777 470 798 471 6 1 86 -42 177
-95z m469 -271 c136 -77 166 -99 156 -108 -20 -20 -781 -458 -793 -458 -13 0
-333 182 -340 193 -4 6 791 470 804 470 3 0 81 -43 173 -97z m-705 -676 c10
-10 11 -69 5 -278 l-7 -266 -400 231 -400 231 -3 277 -2 276 397 -229 c219
-126 403 -235 410 -242z m939 196 c-4 -148 -11 -272 -16 -277 -5 -5 -186 -112
-402 -237 l-393 -228 -3 266 c-2 211 0 270 11 280 20 20 780 462 796 462 12 1
13 -40 7 -266z"/>
<path d="M550 613 l0 -118 167 -95 c91 -52 170 -97 175 -98 5 -2 7 49 6 114
l-3 118 -105 61 c-58 34 -135 78 -172 99 l-68 38 0 -119z"/>
<path d="M4273 1225 c-37 -16 -61 -57 -70 -120 -5 -41 -8 -45 -34 -45 -22 0
-29 -5 -29 -20 0 -16 7 -20 30 -20 l30 0 0 -185 0 -185 25 0 25 0 0 185 0 185
55 0 c48 0 55 2 55 20 0 18 -7 20 -55 20 -52 0 -55 1 -55 25 0 14 6 41 14 60
16 37 42 49 97 43 25 -2 34 1 37 14 2 12 -7 20 -35 27 -47 13 -51 13 -90 -4z"/>
<path d="M4010 1190 c0 -36 3 -40 25 -40 17 0 25 5 25 18 0 37 -13 62 -31 62
-15 0 -19 -7 -19 -40z"/>
<path d="M2170 930 l0 -280 25 0 25 0 0 280 0 280 -25 0 -25 0 0 -280z"/>
<path d="M2350 855 l0 -205 24 0 24 0 4 138 c3 123 5 140 25 168 53 75 152 82
185 14 15 -28 18 -62 18 -177 l0 -143 24 0 24 0 4 138 c3 133 4 140 30 175 49
63 140 73 176 19 14 -21 18 -55 20 -179 l4 -153 24 0 24 0 0 143 c0 216 -23
267 -120 267 -59 0 -97 -17 -133 -60 -28 -33 -37 -37 -37 -16 0 8 -13 28 -29
45 -25 27 -36 31 -81 31 -58 0 -81 -10 -127 -53 l-33 -31 0 42 c0 38 -2 42
-25 42 l-25 0 0 -205z"/>
<path d="M3128 1038 c-50 -21 -53 -25 -40 -46 7 -10 19 -8 57 9 57 25 134 22
165 -6 21 -19 45 -89 37 -109 -4 -9 -20 -10 -65 -2 -87 14 -161 -4 -201 -50
-35 -39 -39 -70 -15 -120 21 -45 66 -68 129 -67 49 0 126 30 141 54 4 7 12 -1
20 -20 9 -21 20 -31 35 -31 18 0 20 4 14 28 -4 15 -10 88 -14 162 -4 82 -11
144 -19 158 -36 63 -151 82 -244 40z m200 -199 c49 -18 16 -109 -51 -140 -54
-24 -94 -24 -134 1 -52 31 -57 100 -11 129 47 30 131 34 196 10z"/>
<path d="M3590 1039 c-95 -58 -127 -181 -74 -287 29 -59 60 -85 122 -101 55
-15 110 -1 157 40 l35 31 0 -56 c0 -103 -47 -150 -150 -150 -57 1 -90 12 -127
47 -13 11 -29 17 -38 13 -40 -15 51 -87 128 -100 54 -10 141 11 177 41 58 48
60 61 60 313 0 223 -1 230 -20 230 -17 0 -20 -7 -20 -42 l0 -42 -27 26 c-53
48 -76 58 -133 58 -38 0 -65 -6 -90 -21z m153 -33 c18 -7 45 -28 60 -45 24
-29 27 -40 27 -110 0 -64 -4 -83 -21 -105 -29 -37 -70 -56 -120 -56 -107 0
-180 124 -135 231 34 82 113 117 189 85z"/>
<path d="M4010 855 l0 -205 25 0 c25 0 25 1 25 83 0 46 -3 139 -7 205 -5 110
-8 122 -25 122 -17 0 -18 -12 -18 -205z"/>
<path d="M4400 1058 c0 -2 40 -97 89 -210 l88 -205 -28 -62 c-23 -52 -32 -61
-53 -61 -21 0 -26 -5 -26 -25 0 -21 5 -25 29 -25 55 0 73 31 185 313 58 147
106 269 106 272 0 3 -11 5 -24 5 -19 0 -27 -10 -45 -57 -80 -212 -115 -293
-122 -286 -4 4 -39 82 -77 173 -63 150 -71 165 -95 168 -15 2 -27 2 -27 0z"/>
</g>
</svg>
